Coordinates
version=1
nRows=4
nColumns=114
inDegrees=yes

Units are S.I. units (second, meters, Newtons, ...)
If the header above contains a line with 'inDegrees', this indicates whether rotational values are in degrees (yes) or radians (no).

endheader 
time	pelvis_tilt	pelvis_list	pelvis_rotation	pelvis_tx	pelvis_ty	pelvis_tz	hip_flexion_l	hip_adduction_l	hip_rotation_l	hip_flexion_r	hip_adduction_r	hip_rotation_r	knee_angle_l	knee_angle_r	ankle_angle_l	ankle_angle_r	subtalar_angle_l	subtalar_angle_r	mtp_angle_l	mtp_angle_r	lumbar_extension	lumbar_bending	lumbar_rotation	arm_flex_l	arm_add_l	arm_rot_l	arm_flex_r	arm_add_r	arm_rot_r	elbow_flex_l	elbow_flex_r	pro_sup_l	pro_sup_r	addbrev_l/activation	addlong_l/activation	addmagDist_l/activation	addmagIsch_l/activation	addmagMid_l/activation	addmagProx_l/activation	bflh_l/activation	bfsh_l/activation	edl_l/activation	ehl_l/activation	fdl_l/activation	fhl_l/activation	gaslat_l/activation	gasmed_l/activation	glmax1_l/activation	glmax2_l/activation	glmax3_l/activation	glmed1_l/activation	glmed2_l/activation	glmed3_l/activation	glmin1_l/activation	glmin2_l/activation	glmin3_l/activation	grac_l/activation	iliacus_l/activation	perbrev_l/activation	perlong_l/activation	piri_l/activation	psoas_l/activation	recfem_l/activation	sart_l/activation	semimem_l/activation	semiten_l/activation	soleus_l/activation	tfl_l/activation	tibant_l/activation	tibpost_l/activation	vasint_l/activation	vaslat_l/activation	vasmed_l/activation	addbrev_r/activation	addlong_r/activation	addmagDist_r/activation	addmagIsch_r/activation	addmagMid_r/activation	addmagProx_r/activation	bflh_r/activation	bfsh_r/activation	edl_r/activation	ehl_r/activation	fdl_r/activation	fhl_r/activation	gaslat_r/activation	gasmed_r/activation	glmax1_r/activation	glmax2_r/activation	glmax3_r/activation	glmed1_r/activation	glmed2_r/activation	glmed3_r/activation	glmin1_r/activation	glmin2_r/activation	glmin3_r/activation	grac_r/activation	iliacus_r/activation	perbrev_r/activation	perlong_r/activation	piri_r/activation	psoas_r/activation	recfem_r/activation	sart_r/activation	semimem_r/activation	semiten_r/activation	soleus_r/activation	tfl_r/activation	tibant_r/activation	tibpost_r/activation	vasint_r/activation	vaslat_r/activation	vasmed_r/activation	
          1.06000000	         -9.48850266	          6.06444049	        -34.63221213	          1.20383440	          0.88109443	          0.35790815	         31.39215716	         -9.10722808	         -7.26882107	         32.37147663	         -6.43285543	         -8.29648778	         46.25637603	         46.74038295	         22.86481184	         25.86969840	        -13.23209371	        -11.19111037	         -7.65530939	         -5.59100797	        -11.82459133	         -1.09732950	          0.90758605	          1.62839023	        -20.09802458	         21.56693873	         -3.53803624	        -19.49660231	         12.39049798	         33.18798628	         32.86845255	        103.39750144	         97.05119844	          0.06436822	          0.06812945	          0.01204292	          0.01200647	          0.03859917	          0.19884279	          0.16220967	          0.19087343	          0.02631573	          0.02868255	          0.04006779	          0.06088220	          0.08290348	          0.14101115	          0.01195764	          0.01205016	          0.03217210	          0.01005243	          0.01007178	          0.01005988	          0.01015848	          0.01011026	          0.01007922	          0.13635294	          0.01006046	          0.01004859	          0.01002086	          0.23157139	          0.06998889	          0.52761809	          0.03874145	          0.13894992	          0.02854662	          0.10375184	          0.01002139	          0.18825309	          0.09070650	          0.26903684	          0.01336886	          0.01000468	          0.01623588	          0.03188602	          0.02815321	          0.05415965	          0.01559151	          0.01040026	          0.06821073	          0.01200857	          0.01163570	          0.01209961	          0.04159440	          0.06443130	          0.02981754	          0.04863241	          0.01996760	          0.03135222	          0.02444262	          0.19464845	          0.09744763	          0.05260948	          0.06874558	          0.05850020	          0.04777484	          0.01091318	          0.06619602	          0.01198470	          0.01201832	          0.02468751	          0.03234064	          0.09046412	          0.01816529	          0.06473593	          0.02359382	          0.18724972	          0.06783250	          0.03553890	          0.12833394	          0.07302176	          0.20947544	          0.10029543	
          1.07000000	         -9.56636053	          6.17150442	        -34.64804894	          1.20088319	          0.87706370	          0.35651769	         32.45058255	         -9.14992328	         -6.97316470	         33.29570793	         -6.59472613	         -8.20178894	         47.75271509	         47.89617855	         23.52391251	         26.42733339	        -13.37963948	        -10.83919654	         -7.48885846	         -5.70206028	        -12.41447581	         -1.01168817	          0.92942340	          1.58206688	        -20.10916554	         21.40451706	         -3.71638522	        -19.61386259	         11.96474980	         33.31352394	         32.98762739	        103.73171652	         97.46842230	          0.05364855	          0.05677939	          0.01004102	          0.01001105	          0.03217080	          0.16573607	          0.13517804	          0.15906836	          0.06846058	          0.05867072	          0.03346330	          0.05080269	          0.06910548	          0.11751762	          0.01003432	          0.01005087	          0.02681269	          0.01000592	          0.01001474	          0.01005459	          0.01001752	          0.01003683	          0.01015881	          0.11363291	          0.06963201	          0.01057830	          0.01046228	          0.19299644	          0.62000789	          0.43971459	          0.38955464	          0.11579804	          0.02379109	          0.08646699	          0.02023162	          0.15690761	          0.07659864	          0.36916265	          0.09004836	          0.01493890	          0.01960494	          0.03276792	          0.02355689	          0.04521053	          0.01391916	          0.01326108	          0.05685945	          0.01175588	          0.01022824	          0.01836396	          0.03650031	          0.05372785	          0.06170765	          0.04062179	          0.01668454	          0.02614928	          0.02039527	          0.16223905	          0.08124543	          0.04388053	          0.05755551	          0.04889028	          0.03989476	          0.01241542	          0.05523040	          0.01002985	          0.01003020	          0.02059818	          0.02699770	          0.07539755	          0.01545514	          0.05398864	          0.01971140	          0.17192569	          0.05703120	          0.11560359	          0.10698492	          0.08020142	          0.19971786	          0.10672492	
          1.08000000	         -9.71885092	          6.33790619	        -34.63285139	          1.19783900	          0.87282552	          0.35489738	         33.69937962	         -9.18614271	         -6.61750787	         34.44538525	         -6.79061826	         -8.06428047	         49.19349572	         49.26387158	         24.06604994	         27.02360904	        -13.42398881	        -10.48338685	         -7.19193172	         -5.74919539	        -12.92841020	         -0.91962221	          0.92487509	          1.55633945	        -20.12071156	         21.22259084	         -3.88141788	        -19.79841783	         11.73828510	         33.55785171	         33.19708652	        103.34504424	         97.10890875	          0.04511012	          0.06102220	          0.01010312	          0.01005785	          0.02682911	          0.15423633	          0.11265031	          0.13258200	          0.05707693	          0.04893602	          0.02835793	          0.04316879	          0.08759545	          0.11112684	          0.01006976	          0.01003964	          0.02235040	          0.01002587	          0.01004569	          0.01006029	          0.01008164	          0.01011027	          0.01013521	          0.09472463	          0.05806756	          0.01007031	          0.01005192	          0.17135279	          0.51667832	          0.36651170	          0.32464252	          0.12945561	          0.01983316	          0.08010265	          0.01687843	          0.13083470	          0.06385566	          0.30763871	          0.07504206	          0.01245446	          0.01640756	          0.02733690	          0.01984442	          0.03853093	          0.01179824	          0.01123482	          0.07535277	          0.01232648	          0.01313557	          0.01553352	          0.03048187	          0.04766036	          0.05149396	          0.04628620	          0.04819249	          0.06853392	          0.01713095	          0.27568346	          0.14532609	          0.08027036	          0.06890489	          0.05914348	          0.05631332	          0.01116401	          0.04605330	          0.01390584	          0.02429541	          0.02574942	          0.02252017	          0.06284169	          0.01310427	          0.13990587	          0.01694608	          0.18099608	          0.04757243	          0.09634728	          0.09831173	          0.06721855	          0.16676115	          0.08923765	
          1.09000000	         -9.94675809	          6.55367000	        -34.58996789	          1.19464353	          0.86835412	          0.35302093	         35.07224329	         -9.21624412	         -6.27666578	         35.79203064	         -7.00970062	         -7.89151481	         50.64444196	         50.79336411	         24.56364881	         27.62649411	        -13.45685719	        -10.10362843	         -6.92665081	         -5.73532707	        -13.40222250	         -0.81623564	          0.94362081	          1.57229594	        -20.10687046	         20.87115912	         -4.12628188	        -20.01555699	         11.26666792	         33.96814353	         33.62052810	        103.09667634	         96.85606135	          0.03767324	          0.05086980	          0.01002105	          0.01001356	          0.02237943	          0.19317234	          0.09388648	          0.11050518	          0.04787097	          0.04086347	          0.02367056	          0.03601188	          0.07301853	          0.09263191	          0.01003153	          0.01001954	          0.01863386	          0.01001007	          0.01001912	          0.01003207	          0.01003182	          0.01004697	          0.01007321	          0.07896080	          0.04841554	          0.02096387	          0.03250504	          0.14283554	          0.43062999	          0.30692421	          0.27056800	          0.10788375	          0.01653681	          0.06677046	          0.01409915	          0.10903655	          0.05323088	          0.29179684	          0.06253712	          0.01038364	          0.01380364	          0.02283241	          0.02452896	          0.07802603	          0.01125374	          0.01040335	          0.06284151	          0.01218623	          0.01127518	          0.01489369	          0.02690007	          0.03977149	          0.04935439	          0.03868859	          0.06421375	          0.09337572	          0.01677292	          0.24162050	          0.12817159	          0.08246912	          0.08227197	          0.06471429	          0.05063034	          0.01132174	          0.03840968	          0.01161837	          0.02025391	          0.02153705	          0.01879114	          0.05237639	          0.01127414	          0.14684760	          0.02190590	          0.18969874	          0.04096799	          0.09911374	          0.08199816	          0.05956339	          0.14856935	          0.07843262	
